<svg xmlns="http://www.w3.org/2000/svg" xmlns:xlink="http://www.w3.org/1999/xlink" width="500" zoomAndPan="magnify" viewBox="0 0 375 374.999991" height="500" preserveAspectRatio="xMidYMid meet" version="1.0"><defs><clipPath id="06de17ee9a"><path d="M 37.5 153.683594 L 337 153.683594 L 337 221.183594 L 37.5 221.183594 Z M 37.5 153.683594 " clip-rule="nonzero"/></clipPath></defs><g clip-path="url(#06de17ee9a)"><path fill="#ffffff" d="M 187.015625 170.558594 C 175.347656 170.558594 166.9375 178.152344 166.9375 189.542969 C 166.9375 200.933594 176.40625 208.527344 188.070312 208.527344 C 195.117188 208.527344 201.332031 205.742188 205.179688 201.046875 L 197.09375 196.386719 C 194.960938 198.71875 191.714844 200.078125 188.070312 200.078125 C 183.007812 200.078125 178.707031 197.441406 177.113281 193.222656 L 206.722656 193.222656 C 206.953125 192.039062 207.089844 190.816406 207.089844 189.53125 C 207.089844 178.152344 198.679688 170.558594 187.015625 170.558594 Z M 177.015625 185.851562 C 178.339844 181.640625 181.953125 178.996094 187.003906 178.996094 C 192.066406 178.996094 195.679688 181.640625 196.988281 185.851562 Z M 300.800781 170.558594 C 289.132812 170.558594 280.722656 178.152344 280.722656 189.542969 C 280.722656 200.933594 290.191406 208.527344 301.855469 208.527344 C 308.90625 208.527344 315.117188 205.742188 318.964844 201.046875 L 310.878906 196.386719 C 308.746094 198.71875 305.5 200.078125 301.855469 200.078125 C 296.792969 200.078125 292.492188 197.441406 290.898438 193.222656 L 320.507812 193.222656 C 320.738281 192.039062 320.875 190.816406 320.875 189.53125 C 320.875 178.152344 312.464844 170.558594 300.800781 170.558594 Z M 290.8125 185.851562 C 292.132812 181.640625 295.75 178.996094 300.800781 178.996094 C 305.859375 178.996094 309.476562 181.640625 310.785156 185.851562 Z M 249.570312 189.542969 C 249.570312 195.871094 253.714844 200.089844 260.136719 200.089844 C 264.492188 200.089844 267.757812 198.117188 269.4375 194.898438 L 277.550781 199.570312 C 274.191406 205.160156 267.894531 208.527344 260.136719 208.527344 C 248.460938 208.527344 240.058594 200.933594 240.058594 189.542969 C 240.058594 178.152344 248.472656 170.558594 260.136719 170.558594 C 267.894531 170.558594 274.179688 173.921875 277.550781 179.511719 L 269.4375 184.183594 C 267.757812 180.964844 264.492188 178.996094 260.136719 178.996094 C 253.722656 178.996094 249.570312 183.214844 249.570312 189.542969 Z M 336.726562 158.957031 L 336.726562 207.472656 L 327.21875 207.472656 L 327.21875 158.957031 Z M 77.023438 153.683594 L 116.066406 221.183594 L 37.976562 221.183594 Z M 174.640625 158.957031 L 145.359375 209.582031 L 116.078125 158.957031 L 127.058594 158.957031 L 145.359375 190.597656 L 163.660156 158.957031 Z M 236.890625 171.613281 L 236.890625 181.832031 C 235.832031 181.527344 234.714844 181.316406 233.507812 181.316406 C 227.371094 181.316406 222.941406 185.535156 222.941406 191.863281 L 222.941406 207.472656 L 213.429688 207.472656 L 213.429688 171.613281 L 222.941406 171.613281 L 222.941406 181.316406 C 222.941406 175.957031 229.1875 171.613281 236.890625 171.613281 Z M 236.890625 171.613281 " fill-opacity="1" fill-rule="nonzero"/></g></svg>